<svg width="110" height="90" viewBox="0 0 110 90" fill="none" xmlns="http://www.w3.org/2000/svg">
<path d="M109.785 11.0542C105.666 12.8674 101.304 14.0642 96.8367 14.6063C101.54 11.7795 105.061 7.34647 106.75 2.12585C102.392 4.6696 97.5608 6.52127 92.4183 7.55252C89.0256 3.92449 84.5298 1.5182 79.6292 0.707315C74.7286 -0.103568 69.6974 0.726331 65.3168 3.06814C60.9362 5.40995 57.4514 9.13262 55.4036 13.6581C53.3557 18.1835 52.8594 23.2585 53.9917 28.095C35.2458 27.2104 18.6404 18.2042 7.51667 4.60085C5.49447 8.0375 4.43971 11.9572 4.46417 15.9446C4.46417 23.7821 8.45167 30.6709 14.4925 34.7179C10.9123 34.604 7.41112 33.636 4.28083 31.8946V32.1696C4.2788 37.3781 6.07873 42.4268 9.37524 46.4593C12.6717 50.4918 17.2618 53.2597 22.3667 54.2933C19.0589 55.1797 15.5944 55.3128 12.2283 54.6829C13.6772 59.1655 16.4893 63.0839 20.2721 65.8915C24.055 68.699 28.6199 70.2557 33.33 70.3442C25.3528 76.6048 15.503 80.0027 5.3625 79.9921C3.575 79.9921 1.79208 79.8867 0 79.685C10.3387 86.3048 22.3599 89.8188 34.6363 89.8096C76.1292 89.8096 98.7938 55.4529 98.7938 25.7117C98.7938 24.7492 98.7938 23.7867 98.725 22.8242C103.152 19.6381 106.971 15.6825 110 11.1459L109.785 11.0542Z" fill="white"/>
</svg>
